<?xml version="1.0" standalone="no"?>
<!DOCTYPE svg PUBLIC "-//W3C//DTD SVG 20010904//EN"
 "http://www.w3.org/TR/2001/REC-SVG-20010904/DTD/svg10.dtd">
<svg version="1.0" xmlns="http://www.w3.org/2000/svg"
 width="260.000000pt" height="260.000000pt" viewBox="0 0 260.000000 260.000000"
 preserveAspectRatio="xMidYMid meet">
<metadata>
Created by potrace 1.14, written by Peter Selinger 2001-2017
</metadata>
<g transform="translate(0.000000,260.000000) scale(0.100000,-0.100000)"
fill="#000000" stroke="none">
<path d="M1192 2403 c-6 -2 -11 -8 -9 -11 1 -4 -19 -28 -45 -53 -27 -26 -48
-45 -48 -43 0 2 -27 -25 -59 -60 -33 -35 -62 -62 -64 -59 -3 2 -8 -5 -12 -16
-3 -12 -13 -21 -21 -21 -24 0 -16 -21 26 -66 22 -24 40 -40 40 -36 0 4 9 -6
20 -23 11 -16 20 -27 20 -23 0 3 24 -19 53 -49 75 -78 111 -113 119 -113 4 0
10 -9 13 -21 4 -11 9 -18 11 -16 3 3 48 -39 100 -91 51 -53 94 -94 95 -92 1 3
2 19 4 35 3 42 3 42 20 58 13 13 23 13 82 0 38 -9 70 -19 71 -24 2 -5 7 -7 12
-4 4 3 13 -2 20 -10 14 -17 4 -75 -12 -75 -6 0 -8 -3 -5 -7 4 -3 3 -11 -3 -18
-6 -8 7 -21 46 -45 l56 -33 29 34 c16 19 29 37 29 40 0 3 7 6 16 6 17 0 72
-50 117 -105 23 -28 25 -36 15 -57 -6 -14 -16 -25 -23 -25 -6 0 -21 -9 -33
-20 -18 -17 -20 -24 -10 -45 6 -14 15 -25 20 -25 4 0 8 -8 8 -19 0 -24 25 -47
35 -31 4 6 13 9 21 6 8 -3 14 -1 14 4 0 6 14 10 30 10 29 0 39 -10 44 -42 1
-7 4 -17 7 -23 3 -5 5 -17 4 -25 0 -8 4 -18 10 -22 6 -5 5 -11 -5 -18 -8 -5
-10 -10 -5 -10 18 0 11 -51 -8 -64 -9 -7 -29 -12 -45 -10 -45 5 -59 -4 -60
-39 -1 -17 -4 -42 -6 -54 -4 -21 13 -45 30 -42 5 1 23 -2 39 -6 27 -6 31 -11
30 -38 -1 -18 -7 -45 -15 -62 -7 -16 -12 -36 -11 -42 1 -7 -3 -13 -8 -13 -5 0
-13 -9 -16 -20 -12 -38 -38 -41 -85 -10 l-43 29 -40 -50 -39 -49 36 -40 c32
-35 34 -42 24 -65 -6 -13 -14 -22 -19 -20 -4 3 -9 1 -11 -3 -6 -14 -95 -71
-102 -65 -3 4 -6 2 -6 -4 0 -6 -9 -9 -19 -6 -18 5 -51 57 -51 82 0 15 -26 13
-80 -7 -38 -14 -45 -21 -46 -44 0 -16 3 -28 7 -28 3 0 5 -10 4 -23 -1 -12 -3
-28 -4 -35 0 -7 -5 -10 -11 -7 -5 3 -10 2 -10 -2 0 -5 -37 -8 -82 -8 l-83 0
-47 -42 c-26 -24 -45 -43 -42 -43 2 0 -10 -13 -28 -29 l-33 -30 298 0 298 -1
114 113 c108 108 225 254 225 282 0 7 5 15 10 17 6 2 12 13 15 26 2 12 7 28
12 35 14 22 32 81 27 89 -3 4 -1 8 4 8 9 0 25 69 26 110 1 8 4 20 7 25 11 18
0 288 -13 310 -3 6 -8 24 -12 40 -16 70 -84 225 -98 225 -5 0 -8 5 -8 11 0 18
-56 93 -124 164 -36 38 -66 73 -66 77 0 4 -4 8 -10 8 -5 0 -42 32 -81 72 -67
67 -72 70 -85 53 -12 -16 -12 -20 1 -28 29 -16 14 -42 -37 -64 -24 -11 -29
-10 -37 6 -6 10 -7 21 -4 25 9 8 -28 6 -52 -3 -11 -5 -21 -18 -21 -30 -1 -11
-2 -25 -3 -30 0 -5 -16 -8 -33 -6 -18 2 -39 4 -47 4 -10 1 -12 9 -8 30 5 25 2
31 -16 37 -41 14 -48 12 -58 -12 -9 -25 -9 -25 -40 -7 -48 28 -54 40 -35 62
17 18 17 21 1 45 -19 28 -34 33 -53 14 -9 -9 -15 -9 -27 3 -17 17 -33 91 -19
88 32 -6 42 2 39 32 -2 33 -20 50 -42 42 -12 -5 -18 9 -13 32 1 6 3 18 5 28 6
30 15 36 43 31 23 -5 29 -1 38 24 9 25 8 31 -7 41 -24 14 -24 26 2 52 l20 20
-40 40 c-41 39 -46 42 -69 32z"/>
<path d="M1378 2213 c-42 -48 -57 -153 -27 -189 8 -9 13 -19 11 -21 -8 -11 37
-56 79 -77 37 -18 60 -23 92 -20 23 3 48 6 54 6 7 1 27 14 45 29 l33 27 -132
131 c-73 72 -134 131 -136 131 -2 0 -11 -8 -19 -17z"/>
<path d="M743 1949 c-24 -22 -43 -44 -43 -49 0 -5 -9 -12 -21 -15 -11 -4 -18
-9 -16 -11 5 -6 -45 -61 -53 -58 -3 1 -13 -9 -23 -22 l-18 -24 138 -138 c76
-77 144 -141 152 -144 8 -2 28 10 44 28 24 28 32 32 50 23 13 -6 31 -23 41
-38 18 -26 46 -38 46 -19 0 4 7 8 15 8 8 0 15 5 15 10 0 6 8 14 18 17 32 13
40 26 28 48 -6 11 -14 22 -17 25 -12 10 -17 50 -6 50 6 0 7 3 4 7 -4 3 0 11 9
18 14 10 12 15 -19 42 -20 17 -33 34 -30 37 4 3 2 6 -4 6 -5 0 -63 54 -128
120 -66 66 -124 120 -130 120 -5 0 -29 -19 -52 -41z"/>
<path d="M517 1563 c-2 -5 -3 -217 -3 -473 1 -446 2 -465 20 -468 11 -2 16 0
12 6 -3 6 -2 14 4 17 8 5 8 11 0 20 -9 10 -7 16 7 23 22 12 84 6 94 -9 3 -6 9
-10 13 -10 22 3 23 -3 10 -34 -14 -35 -14 -36 11 -45 61 -23 71 -22 83 5 12
27 13 27 40 9 46 -30 72 -65 62 -85 -5 -9 -16 -19 -25 -23 -20 -7 -19 -28 4
-53 11 -12 18 -23 15 -26 -3 -2 2 -7 11 -10 8 -4 15 -2 15 3 0 6 7 10 15 10 8
0 15 6 15 13 1 7 6 5 14 -5 7 -10 16 -15 19 -11 4 3 5 -4 2 -15 -2 -12 0 -24
6 -27 5 -4 9 -22 9 -41 0 -30 -3 -34 -27 -35 -16 -1 -31 -1 -34 -1 -4 1 -9
-14 -11 -32 l-4 -34 47 0 46 -1 131 133 c73 73 135 130 138 127 4 -3 5 1 2 9
-3 8 -10 15 -15 15 -6 0 -15 3 -19 8 -4 4 -17 7 -30 7 -17 0 -23 -7 -28 -34
-12 -64 -49 -75 -119 -34 -57 33 -90 63 -93 83 -1 8 13 30 31 50 l34 35 -46
50 -45 49 -26 -25 c-35 -33 -67 -40 -87 -20 -16 16 -64 117 -70 148 -4 19 29
53 44 44 5 -4 12 -2 16 4 4 6 10 8 15 5 18 -11 35 43 20 63 -3 2 -6 30 -9 57
-1 12 -12 15 -43 14 -84 -3 -79 -7 -77 74 2 39 7 78 12 85 5 6 6 12 3 12 -4 0
-2 8 3 19 12 21 48 34 57 20 3 -5 10 -7 15 -4 5 4 9 2 9 -2 0 -5 11 -10 25
-11 14 -1 25 0 25 3 0 3 -76 81 -169 175 -92 93 -166 172 -163 175 3 3 3 5 -1
5 -3 0 -8 -3 -10 -7z"/>
<path d="M1328 1349 c-16 -4 -28 -5 -28 -2 0 3 -7 0 -15 -7 -8 -7 -15 -9 -15
-6 0 4 -13 -2 -29 -13 -16 -12 -32 -21 -36 -21 -12 0 -95 -92 -95 -106 0 -8
-4 -14 -10 -14 -5 0 -9 -3 -9 -7 1 -5 0 -10 -1 -13 -9 -25 -13 -56 -14 -120
-1 -63 4 -84 27 -131 67 -138 221 -205 371 -162 88 26 185 118 201 192 2 9 8
30 12 46 5 17 8 39 7 50 -1 11 -3 39 -5 63 -2 23 -6 42 -10 42 -4 0 -10 14
-14 31 -11 51 -157 183 -179 162 -4 -4 -10 -2 -14 4 -9 14 -106 22 -144 12z"/>
<path d="M524 512 c-5 -4 -10 -69 -10 -144 l0 -138 127 0 c70 0 134 2 141 5
13 5 14 54 4 90 -2 6 -4 13 -5 18 -5 41 -88 133 -128 143 -13 4 -23 9 -23 13
0 4 -12 8 -27 9 -16 1 -37 4 -49 6 -11 2 -25 1 -30 -2z"/>
</g>
</svg>
